<svg width="25" height="25" viewBox="0 0 25 25" fill="none" xmlns="http://www.w3.org/2000/svg">
<path d="M23.3627 4.85719C23.2271 4.64659 23.0407 4.47346 22.8207 4.35371C22.6007 4.23396 22.3541 4.17143 22.1037 4.17188H8.6796C8.39068 4.17186 8.10791 4.25527 7.86526 4.41211C7.62261 4.56894 7.43042 4.7925 7.31179 5.05594L1.23679 18.5559C1.13394 18.7843 1.08991 19.0348 1.10873 19.2846C1.12755 19.5343 1.20861 19.7754 1.34452 19.9858C1.48043 20.1962 1.66686 20.3692 1.8868 20.489C2.10674 20.6089 2.35319 20.6717 2.60366 20.6719H16.0277C16.3166 20.6719 16.5994 20.5885 16.8421 20.4316C17.0847 20.2748 17.2769 20.0513 17.3955 19.7878L23.4705 6.28781C23.5735 6.05933 23.6176 5.80869 23.5988 5.55878C23.5799 5.30887 23.4988 5.06766 23.3627 4.85719ZM16.0277 19.1719H2.60366L8.6796 5.67188H22.1037L16.0277 19.1719Z" fill="#F5F5F5"/>
</svg>
